<svg xmlns="http://www.w3.org/2000/svg" version="1.1" xmlns:xlink="http://www.w3.org/1999/xlink" xmlns:svgjs="http://svgjs.dev/svgjs" width="1000" height="623" viewBox="0 0 1000 623"><g transform="matrix(1,0,0,1,-0.6060606060606233,0.2522267206477409)"><svg viewBox="0 0 396 247" data-background-color="#ffffff" preserveAspectRatio="xMidYMid meet" height="623" width="1000" xmlns="http://www.w3.org/2000/svg" xmlns:xlink="http://www.w3.org/1999/xlink"><g id="tight-bounds" transform="matrix(1,0,0,1,0.2400000000000091,-0.09999999999999432)"><svg viewBox="0 0 395.52 247.2" height="247.2" width="395.52"><g><svg></svg></g><g><svg viewBox="0 0 395.52 247.2" height="247.2" width="395.52"><g><path xmlns="http://www.w3.org/2000/svg" d="M55.039 247.2l26.403-45.732h2.897l-24.876 43.086h276.593l-24.875-43.086 2.897 0 26.403 45.732zM197.76 0l26.403 45.732-2.896 0-23.507-40.715-23.507 40.715-2.896 0z" fill="#ea3c12" fill-rule="nonzero" stroke="none" stroke-width="1" stroke-linecap="butt" stroke-linejoin="miter" stroke-miterlimit="10" stroke-dasharray="" stroke-dashoffset="0" font-family="none" font-weight="none" font-size="none" text-anchor="none" style="mix-blend-mode: normal" data-fill-palette-color="tertiary"></path></g><g transform="matrix(1,0,0,1,30.003884566946027,67.97999999999999)"><svg viewBox="0 0 335.5122308661079 111.24" height="111.24" width="335.5122308661079"><g><svg viewBox="0 0 395.5199999999999 131.13574037650517" height="111.24" width="335.5122308661079"><g transform="matrix(1,0,0,1,0,81.04714845766661)"><svg viewBox="0 0 395.5199999999999 50.088591918838546" height="50.088591918838546" width="395.5199999999999"><g id="textblocktransform"><svg viewBox="0 0 395.5199999999999 50.088591918838546" height="50.088591918838546" width="395.5199999999999" id="textblock"><g><svg viewBox="0 0 395.5199999999999 50.088591918838546" height="50.088591918838546" width="395.5199999999999"><g transform="matrix(1,0,0,1,0,0)"><svg width="395.5199999999999" viewBox="1.399999976158142 -35.599998474121094 285.83001708984375 36.19999694824219" height="50.088591918838546" data-palette-color="#ea3c12"><path d="M17.05 0L11.75 0 11.75-30.7 1.4-30.7 1.4-35 27.35-35 27.35-30.7 17.05-30.7 17.05 0ZM37.6 0L32.3 0 32.3-35 44.35-35Q48.5-35 51.17-33.6 53.85-32.2 55.15-29.83 56.45-27.45 56.45-24.55L56.45-24.55Q56.45-21.3 54.72-18.65 53-16 49.35-14.85L49.35-14.85 56.8 0 50.65 0 43.85-14.1 37.6-14.1 37.6 0ZM37.6-30.55L37.6-18.1 44.05-18.1Q47.65-18.1 49.32-19.85 51-21.6 51-24.4L51-24.4Q51-27.2 49.35-28.88 47.7-30.55 44-30.55L44-30.55 37.6-30.55ZM66.05 0L60.45 0 73.34-35 79.15-35 91.95 0 86.34 0 83.34-8.55 69.05-8.55 66.05 0ZM76.2-28.7L70.55-12.75 81.84-12.75 76.2-28.7ZM102.14 0L96.84 0 96.84-35 102.14-35 102.14 0ZM130.44 0L109.24 0 109.24-35 114.54-35 114.54-4.2 130.44-4.2 130.44 0ZM160.28 0.6L160.28 0.6Q156.44 0.6 153.53-0.75 150.63-2.1 149.01-4.6 147.38-7.1 147.34-10.55L147.34-10.55 152.94-10.55Q152.99-7.75 154.88-5.8 156.78-3.85 160.24-3.85L160.24-3.85Q163.28-3.85 165.01-5.33 166.74-6.8 166.74-9.1L166.74-9.1Q166.74-10.95 165.91-12.1 165.09-13.25 163.66-14 162.24-14.75 160.38-15.35 158.53-15.95 156.49-16.65L156.49-16.65Q152.44-18 150.41-20.15 148.38-22.3 148.38-25.8L148.38-25.8Q148.34-28.75 149.76-30.95 151.19-33.15 153.76-34.38 156.34-35.6 159.78-35.6L159.78-35.6Q163.19-35.6 165.76-34.35 168.34-33.1 169.78-30.88 171.24-28.65 171.28-25.7L171.28-25.7 165.69-25.7Q165.69-27.05 164.99-28.28 164.28-29.5 162.94-30.3 161.59-31.1 159.63-31.1L159.63-31.1Q157.13-31.15 155.51-29.85 153.88-28.55 153.88-26.25L153.88-26.25Q153.88-24.2 155.09-23.1 156.28-22 158.38-21.28 160.49-20.55 163.19-19.6L163.19-19.6Q165.78-18.75 167.84-17.55 169.88-16.35 171.11-14.4 172.34-12.45 172.34-9.45L172.34-9.45Q172.34-6.8 170.99-4.53 169.63-2.25 166.94-0.83 164.24 0.6 160.28 0.6ZM183.43 0L178.13 0 178.13-35 183.43-35 183.43 0ZM205.73 0.6L205.73 0.6Q200.78 0.6 197.08-1.65 193.38-3.9 191.33-7.95 189.28-12 189.28-17.4L189.28-17.4Q189.28-22.75 191.38-26.85 193.48-30.95 197.36-33.27 201.23-35.6 206.53-35.6L206.53-35.6Q212.53-35.6 216.53-32.7 220.53-29.8 221.73-24.7L221.73-24.7 215.73-24.7Q214.93-27.5 212.58-29.1 210.23-30.7 206.53-30.7L206.53-30.7Q201.03-30.7 197.88-27.15 194.73-23.6 194.73-17.35L194.73-17.35Q194.73-11.1 197.83-7.6 200.93-4.1 206.08-4.1L206.08-4.1Q211.28-4.1 213.91-7.05 216.53-10 216.98-14.9L216.98-14.9 207.48-14.9 207.48-19 222.33-19 222.33 0 217.48 0 217.03-5.15Q215.28-2.4 212.63-0.9 209.98 0.6 205.73 0.6ZM234.08 0L228.78 0 228.78-35 234.08-35 234.08-20 251.03-20 251.03-35 256.33-35 256.33 0 251.03 0 251.03-15.65 234.08-15.65 234.08 0ZM276.93 0L271.63 0 271.63-30.7 261.27-30.7 261.27-35 287.23-35 287.23-30.7 276.93-30.7 276.93 0Z" opacity="1" transform="matrix(1,0,0,1,0,0)" fill="#ea3c12" class="wordmark-text-0" data-fill-palette-color="primary" id="text-0"></path></svg></g></svg></g></svg></g></svg></g><g transform="matrix(1,0,0,1,155.14839862625468,0)"><svg viewBox="0 0 85.22320274749059 69.22243403183488" height="69.22243403183488" width="85.22320274749059"><g><svg xmlns="http://www.w3.org/2000/svg" xmlns:xlink="http://www.w3.org/1999/xlink" version="1.1" x="8" y="0" viewBox="4.9670000076293945 5 90.0009994506836 90" enable-background="new 0 0 100 100" xml:space="preserve" height="69.22243403183488" width="69.22320274749059" class="icon-icon-0" data-fill-palette-color="accent" id="icon-0"><g fill="#ea9937" data-fill-palette-color="accent"><polygon points="81.588,69.219 76.042,77.733 49.901,5 30.566,58.797 24.486,43.546 4.967,95 17.555,95 45,95 64.794,95 82.249,95    94.968,95  " fill="#ea9937" data-fill-palette-color="accent"></polygon></g></svg></g></svg></g><g><rect width="125.14451405930868" height="4.5170409106677205" y="63.705393121167155" x="240.37160137374525" fill="#ea9937" data-fill-palette-color="accent"></rect><rect width="125.14451405930868" height="4.5170409106677205" y="63.705393121167155" x="30.003884566946" fill="#ea9937" data-fill-palette-color="accent"></rect><rect width="125.14451405930868" height="4.5170409106677205" y="54.671311299831714" x="240.37160137374525" fill="#ea9937" data-fill-palette-color="accent"></rect><rect width="125.14451405930868" height="4.5170409106677205" y="54.671311299831714" x="30.003884566946" fill="#ea9937" data-fill-palette-color="accent"></rect></g></svg></g></svg></g></svg></g><defs></defs></svg><rect width="395.52" height="247.2" fill="none" stroke="none" visibility="hidden"></rect></g></svg></g></svg>